<mxfile host="65bd71144e">
    <diagram id="WBjvlmOX7QORwJJAJFwh" name="Page-1">
        <mxGraphModel dx="1326" dy="779" grid="1" gridSize="10" guides="1" tooltips="1" connect="1" arrows="1" fold="1" page="1" pageScale="1" pageWidth="850" pageHeight="1100" math="0" shadow="0">
            <root>
                <mxCell id="0"/>
                <mxCell id="1" parent="0"/>
                <mxCell id="2" value="GiveMeSomeCredit" style="swimlane;whiteSpace=wrap;html=1;" parent="1" vertex="1">
                    <mxGeometry x="80" y="80" width="1230" height="720" as="geometry"/>
                </mxCell>
                <mxCell id="3" value="cs-training.csv" style="rounded=0;whiteSpace=wrap;html=1;" parent="2" vertex="1">
                    <mxGeometry x="195" y="70" width="120" height="60" as="geometry"/>
                </mxCell>
                <mxCell id="4" value="cs-test.csv" style="rounded=0;whiteSpace=wrap;html=1;" parent="2" vertex="1">
                    <mxGeometry x="550" y="70" width="120" height="60" as="geometry"/>
                </mxCell>
                <mxCell id="5" value="data dictionary.xls" style="rounded=0;whiteSpace=wrap;html=1;" parent="2" vertex="1">
                    <mxGeometry x="730" y="70" width="120" height="60" as="geometry"/>
                </mxCell>
                <mxCell id="6" value="sampleEntry.csv" style="rounded=0;whiteSpace=wrap;html=1;" parent="2" vertex="1">
                    <mxGeometry x="910" y="70" width="120" height="60" as="geometry"/>
                </mxCell>
                <mxCell id="8" value="&lt;div style=&quot;text-align: justify;&quot;&gt;&lt;span style=&quot;background-color: initial;&quot;&gt;11个字段&lt;/span&gt;&lt;/div&gt;&lt;table style=&quot;text-align: justify;&quot; width=&quot;270&quot; cellspacing=&quot;0&quot; cellpadding=&quot;0&quot; border=&quot;0&quot;&gt;&lt;tbody&gt;&lt;tr style=&quot;height:12.75pt&quot; height=&quot;17&quot;&gt;  &lt;td style=&quot;height:12.75pt;width:203pt&quot; width=&quot;270&quot; class=&quot;xl65&quot; height=&quot;17&quot;&gt;SeriousDlqin2yrs:逾期超过90天或者更坏&lt;br&gt;&lt;br&gt;&lt;table width=&quot;270&quot; cellspacing=&quot;0&quot; cellpadding=&quot;0&quot; border=&quot;0&quot;&gt;&lt;tbody&gt;&lt;tr style=&quot;height:25.5pt&quot; height=&quot;34&quot;&gt;  &lt;td style=&quot;height:25.5pt;width:203pt&quot; width=&quot;270&quot; class=&quot;xl65&quot; height=&quot;34&quot;&gt;RevolvingUtilizationOfUnsecuredLines:(无担保额度循环使用)信用卡和个人信用额度的总余额(房地产和汽车贷款等分期付款债务除外)除以信用额度的总和&lt;br&gt;&lt;br&gt;age:年龄&lt;br&gt;&lt;br&gt;&lt;table width=&quot;270&quot; cellspacing=&quot;0&quot; cellpadding=&quot;0&quot; border=&quot;0&quot;&gt;&lt;tbody&gt;&lt;tr style=&quot;height:12.75pt&quot; height=&quot;17&quot;&gt;  &lt;td style=&quot;height:12.75pt;width:203pt&quot; width=&quot;270&quot; class=&quot;xl65&quot; height=&quot;17&quot;&gt;NumberOfTime30-59DaysPastDueNotWorse:近2年预期在30-59天且未超过59天的次数&lt;br&gt;&lt;br&gt;&lt;table width=&quot;270&quot; cellspacing=&quot;0&quot; cellpadding=&quot;0&quot; border=&quot;0&quot;&gt;&lt;tbody&gt;&lt;tr style=&quot;height:12.75pt&quot; height=&quot;17&quot;&gt;  &lt;td style=&quot;height:12.75pt;width:203pt&quot; width=&quot;270&quot; class=&quot;xl65&quot; height=&quot;17&quot;&gt;DebtRatio:月度债务支出，赡养费，生活费除以每月收入&lt;br&gt;&lt;br&gt;&lt;table width=&quot;270&quot; cellspacing=&quot;0&quot; cellpadding=&quot;0&quot; border=&quot;0&quot;&gt;&lt;tbody&gt;&lt;tr style=&quot;height:12.75pt&quot; height=&quot;17&quot;&gt;  &lt;td style=&quot;height:12.75pt;width:203pt&quot; width=&quot;270&quot; class=&quot;xl65&quot; height=&quot;17&quot;&gt;MonthlyIncome:月收入&lt;br&gt;&lt;br&gt;&lt;table width=&quot;270&quot; cellspacing=&quot;0&quot; cellpadding=&quot;0&quot; border=&quot;0&quot;&gt;&lt;tbody&gt;&lt;tr style=&quot;height:12.75pt&quot; height=&quot;17&quot;&gt;  &lt;td style=&quot;height:12.75pt;width:203pt&quot; width=&quot;270&quot; class=&quot;xl65&quot; height=&quot;17&quot;&gt;NumberOfOpenCreditLinesAndLoans:未结清贷款和信用额度（例如信用卡）数量&lt;br&gt;&lt;br&gt;&lt;table width=&quot;270&quot; cellspacing=&quot;0&quot; cellpadding=&quot;0&quot; border=&quot;0&quot;&gt;&lt;tbody&gt;&lt;tr style=&quot;height:12.75pt&quot; height=&quot;17&quot;&gt;  &lt;td style=&quot;height:12.75pt;width:203pt&quot; width=&quot;270&quot; class=&quot;xl65&quot; height=&quot;17&quot;&gt;NumberOfTimes90DaysLate:借款人预期超过90天次数&lt;br&gt;&lt;br&gt;&lt;table width=&quot;270&quot; cellspacing=&quot;0&quot; cellpadding=&quot;0&quot; border=&quot;0&quot;&gt;&lt;tbody&gt;&lt;tr style=&quot;height:12.75pt&quot; height=&quot;17&quot;&gt;  &lt;td style=&quot;height:12.75pt;width:203pt&quot; width=&quot;270&quot; class=&quot;xl65&quot; height=&quot;17&quot;&gt;NumberRealEstateLoansOrLines:房地产贷款（包括住房净值信贷额度）或者抵押贷款数量&lt;br&gt;&lt;br&gt;&lt;table width=&quot;270&quot; cellspacing=&quot;0&quot; cellpadding=&quot;0&quot; border=&quot;0&quot;&gt;&lt;tbody&gt;&lt;tr style=&quot;height:12.75pt&quot; height=&quot;17&quot;&gt;  &lt;td style=&quot;height:12.75pt;width:203pt&quot; width=&quot;270&quot; class=&quot;xl65&quot; height=&quot;17&quot;&gt;NumberOfTime60-89DaysPastDueNotWorse:近2年逾期天数在60-89天次数，但是不会更差&lt;br&gt;&lt;br&gt;&lt;table width=&quot;270&quot; cellspacing=&quot;0&quot; cellpadding=&quot;0&quot; border=&quot;0&quot;&gt;&lt;tbody&gt;&lt;tr style=&quot;height:12.75pt&quot; height=&quot;17&quot;&gt;  &lt;td style=&quot;height:12.75pt;width:203pt&quot; width=&quot;270&quot; class=&quot;xl65&quot; height=&quot;17&quot;&gt;NumberOfDependents:除自己外需要赡养的人数（配偶，子女等）&lt;/td&gt;&lt;/tr&gt;&lt;/tbody&gt;&lt;/table&gt;&lt;/td&gt;&lt;/tr&gt;&lt;/tbody&gt;&lt;/table&gt;&lt;/td&gt;&lt;/tr&gt;&lt;/tbody&gt;&lt;/table&gt;&lt;/td&gt;&lt;/tr&gt;&lt;/tbody&gt;&lt;/table&gt;&lt;/td&gt;&lt;/tr&gt;&lt;/tbody&gt;&lt;/table&gt;&lt;/td&gt;&lt;/tr&gt;&lt;/tbody&gt;&lt;/table&gt;&lt;/td&gt;&lt;/tr&gt;&lt;/tbody&gt;&lt;/table&gt;&lt;/td&gt;&lt;/tr&gt;&lt;/tbody&gt;&lt;/table&gt;&lt;/td&gt;&lt;/tr&gt;&lt;/tbody&gt;&lt;/table&gt;&lt;/td&gt;&lt;/tr&gt;&lt;/tbody&gt;&lt;/table&gt;" style="text;html=1;strokeColor=none;fillColor=none;align=left;verticalAlign=middle;whiteSpace=wrap;rounded=0;" vertex="1" parent="2">
                    <mxGeometry x="120" y="160" width="280" height="470" as="geometry"/>
                </mxCell>
                <mxCell id="7" value="MySQL:give_me_some_credit" style="swimlane;whiteSpace=wrap;html=1;" parent="1" vertex="1">
                    <mxGeometry x="425" y="920" width="715" height="500" as="geometry"/>
                </mxCell>
            </root>
        </mxGraphModel>
    </diagram>
</mxfile>